<svg xmlns="http://www.w3.org/2000/svg" xmlns:xlink="http://www.w3.org/1999/xlink" version="1.1" width="256" height="256" viewBox="0 0 256 256" xml:space="preserve">
<g style="stroke: none; stroke-width: 0; stroke-dasharray: none; stroke-linecap: butt; stroke-linejoin: miter; stroke-miterlimit: 10; fill: none; fill-rule: nonzero; opacity: 1;" transform="translate(1.4065934065934016 1.4065934065934016) scale(2.81 2.81)">
	<path d="M 69.997 54.996 c -0.365 -0.196 -0.812 -0.147 -1.127 0.124 c -1.677 1.444 -3.877 1.007 -6.664 0.449 c -2.434 -0.485 -5.191 -1.035 -8.14 -0.26 c -3.606 1.238 -7.443 4.974 -7.617 11.747 c -0.406 0.358 -0.812 0.741 -1.219 1.139 V 39.201 c 4.784 -0.233 9.5 -2.15 13.145 -5.795 c 3.773 -3.773 5.852 -8.79 5.852 -14.126 c 0 -5.336 -2.079 -10.353 -5.852 -14.126 c -0.391 -0.391 -1.023 -0.391 -1.414 0 l -3.573 3.573 c -0.472 -2.886 -1.67 -5.677 -3.602 -8.316 c -0.167 -0.229 -0.425 -0.376 -0.708 -0.405 c -0.283 -0.03 -0.564 0.065 -0.773 0.257 l -4.095 3.747 l -4.094 -3.747 c -0.21 -0.192 -0.496 -0.289 -0.774 -0.257 c -0.283 0.028 -0.541 0.175 -0.708 0.405 c -1.924 2.63 -3.121 5.409 -3.596 8.283 l -3.54 -3.54 c -0.391 -0.391 -1.023 -0.391 -1.414 0 c -7.789 7.789 -7.789 20.463 0 28.253 l 0.023 -0.023 c 0.006 0.007 0.009 0.016 0.015 0.023 c 3.636 3.636 8.337 5.551 13.107 5.793 v 17.347 c -0.341 -0.331 -0.683 -0.65 -1.024 -0.951 c -0.174 -6.375 -3.794 -9.894 -7.263 -11.083 c -2.715 -0.713 -5.313 -0.195 -7.606 0.263 c -2.6 0.52 -4.655 0.929 -6.208 -0.409 c -0.314 -0.271 -0.762 -0.319 -1.126 -0.124 c -0.365 0.196 -0.571 0.597 -0.518 1.008 c 0.801 6.268 2.039 12.155 8.346 15.318 c 1.308 0.58 2.671 0.866 4.066 0.866 c 3.043 0 6.234 -1.381 9.319 -4.039 c 0.666 0.609 1.334 1.281 2.015 2.022 V 89 c 0 0.553 0.448 1 1 1 c 0.552 0 1 -0.447 1 -1 V 71.073 c 0.747 -0.814 1.479 -1.549 2.209 -2.215 c 3.279 2.838 6.671 4.314 9.918 4.314 c 1.49 0 2.949 -0.308 4.352 -0.93 c 6.642 -3.332 7.955 -9.583 8.806 -16.239 C 70.567 55.593 70.361 55.192 69.997 54.996 z M 28.684 58.762 c -4.787 -2.401 -6.164 -6.714 -6.943 -11.802 c 1.874 0.598 3.956 0.182 5.988 -0.223 c 2.183 -0.436 4.438 -0.885 6.636 -0.312 c 2.444 0.838 5.028 3.223 5.692 7.475 c -3.5 -2.436 -7.3 -3.513 -12.571 -3.773 c -0.567 -0.036 -1.021 0.398 -1.048 0.95 c -0.027 0.552 0.398 1.02 0.95 1.048 c 5.287 0.26 8.878 1.352 12.289 3.974 C 36.814 58.5 32.815 60.591 28.684 58.762 z M 39.611 2.511 l 3.925 3.592 c 0.383 0.35 0.968 0.35 1.351 0 l 3.925 -3.592 c 1.693 2.58 2.6 5.215 2.778 8.016 l -7.359 7.359 l -7.395 -7.394 C 37.018 7.703 37.925 5.079 39.611 2.511 z M 30.811 7.294 l 12.005 12.005 L 30.845 31.271 C 24.738 24.468 24.715 14.102 30.811 7.294 z M 57.649 7.294 c 2.96 3.3 4.579 7.518 4.579 11.986 c 0 4.802 -1.871 9.316 -5.267 12.712 c -6.772 6.771 -17.647 7 -24.698 0.687 L 57.649 7.294 z M 60.856 70.435 c -4.497 1.993 -8.812 -0.285 -11.879 -2.875 c 3.661 -2.836 7.507 -4.014 13.185 -4.292 c 0.552 -0.027 0.977 -0.496 0.95 -1.048 c -0.027 -0.553 -0.502 -0.991 -1.048 -0.95 c -5.659 0.278 -9.722 1.44 -13.473 4.087 c 0.674 -4.644 3.466 -7.244 6.053 -8.134 c 2.428 -0.639 4.84 -0.157 7.17 0.309 c 2.191 0.437 4.435 0.887 6.443 0.206 C 67.428 63.218 65.974 67.866 60.856 70.435 z" style="stroke: none; stroke-width: 1; stroke-dasharray: none; stroke-linecap: butt; stroke-linejoin: miter; stroke-miterlimit: 10; fill: rgb(0,0,0); fill-rule: nonzero; opacity: 1;" transform=" matrix(1 0 0 1 0 0) " stroke-linecap="round"/>
</g>
</svg>